<svg xmlns="http://www.w3.org/2000/svg" xmlns:xlink="http://www.w3.org/1999/xlink" width="22" height="22"><defs><path id="a" d="M1347.489 107.097a2.803 2.803 0 0 1-2.799-2.799 2.802 2.802 0 0 1 2.799-2.798 2.8 2.8 0 0 1 2.798 2.798 2.802 2.802 0 0 1-2.798 2.799zm-6.019 9.691c1.023 0 1.856.833 1.856 1.856a1.859 1.859 0 0 1-1.856 1.856 1.857 1.857 0 0 1 0-3.712zm-7.906-8.212a1.858 1.858 0 0 1-1.855-1.856 1.857 1.857 0 0 1 3.712 0 1.858 1.858 0 0 1-1.857 1.856zm13.925-8.076a3.803 3.803 0 0 0-3.799 3.798c0 .849.28 1.633.752 2.266l-3.196 3.277a1.993 1.993 0 0 0-2.095.18l-2.976-2.144a2.83 2.83 0 0 0 .246-1.157 2.859 2.859 0 0 0-2.856-2.855 2.859 2.859 0 0 0-2.855 2.855 2.859 2.859 0 0 0 2.855 2.856 2.84 2.84 0 0 0 1.903-.729l2.979 2.146a2 2 0 0 0 1.611 2.612l.382 2.376a2.86 2.86 0 0 0-1.826 2.663 2.859 2.859 0 0 0 2.855 2.855 2.859 2.859 0 0 0 2.856-2.855 2.86 2.86 0 0 0-2.701-2.852l-.382-2.38a1.999 1.999 0 0 0 .863-2.733l3.196-3.277a3.775 3.775 0 0 0 2.188.695 3.803 3.803 0 0 0 3.798-3.799 3.803 3.803 0 0 0-3.798-3.798z"/></defs><use fill="#fff" xlink:href="#a" transform="translate(-1330 -100)"/></svg>