<svg xmlns="http://www.w3.org/2000/svg" xmlns:xlink="http://www.w3.org/1999/xlink" width="17" height="21"><defs><path id="a" d="M1205.358 50.95c1.625 0 2.514-1.15 2.514-2.77h-5.032c0 1.62.888 2.77 2.518 2.77z"/><path id="b" d="M1213.513 45.532c-.805-1.06-2.388-1.683-2.388-6.432 0-4.875-2.152-6.834-4.159-7.305-.188-.047-.324-.11-.324-.308v-.152c0-.7-.575-1.29-1.275-1.285-.7-.01-1.275.585-1.275 1.285v.152c0 .193-.135.261-.324.308-2.011.476-4.159 2.43-4.159 7.305 0 4.75-1.583 5.366-2.388 6.432-.517.684-.026 1.661.831 1.661h14.636c.851 0 1.342-.982.825-1.661z"/></defs><use fill="#fff" xlink:href="#a" transform="translate(-1197 -30)"/><use fill="#fff" xlink:href="#b" transform="translate(-1197 -30)"/></svg>