<svg xmlns="http://www.w3.org/2000/svg" xmlns:xlink="http://www.w3.org/1999/xlink" width="18" height="20"><defs><path id="a" d="M1219.59 111.51v7.197a1 1 0 0 0 1.685.728l4.493-4.225a.5.5 0 0 1 .687.003l4.49 4.283a1 1 0 0 0 1.69-.724V104a2 2 0 0 0-2-2h-9.045a2 2 0 0 0-2 2v.378"/><path id="b" d="M1219 103.55a.6.6 0 0 1 1.2 0v8.33a.6.6 0 0 1-1.2 0z"/></defs><use fill="#fff" fill-opacity="0" stroke="#fff" stroke-linecap="round" stroke-miterlimit="50" stroke-width="1.2" xlink:href="#a" transform="translate(-1216 -101)"/><use fill="#fff" xlink:href="#b" transform="rotate(45 733.918 -1411.342)"/><use fill="#fff" xlink:href="#b" transform="rotate(-45 490.082 1525.342)"/></svg>