<svg xmlns="http://www.w3.org/2000/svg" xmlns:xlink="http://www.w3.org/1999/xlink" width="14" height="20"><defs><path id="a" d="M1099.9 118.917a.32.32 0 0 1-.179.292.324.324 0 0 1-.32-.011l-5-4.495a.601.601 0 0 0-.803 0l-4.979 4.48a.326.326 0 0 1-.342.025.319.319 0 0 1-.177-.291v-14.91c0-.693.564-1.257 1.258-1.257h9.285a1.26 1.26 0 0 1 1.258 1.257v14.91zm-1.257-17.367h-9.286a2.46 2.46 0 0 0-2.457 2.457v14.91c0 .575.317 1.096.828 1.359.512.263 1.119.22 1.642-.157l4.63-4.162 4.63 4.162a1.532 1.532 0 0 0 1.642.158c.511-.263.828-.784.828-1.359v-14.911a2.46 2.46 0 0 0-2.457-2.457z"/></defs><use fill="#fff" xlink:href="#a" transform="translate(-1087 -101)"/></svg>