<svg xmlns="http://www.w3.org/2000/svg" xmlns:xlink="http://www.w3.org/1999/xlink" width="15" height="20"><defs><path id="a" d="M1182.115 107.572c0 .297-.24.538-.538.538h-5.574l1.855 1.855a.539.539 0 0 1-.762.762l-2.778-2.778a.538.538 0 0 1 0-.762l2.778-2.77a.539.539 0 1 1 .762.763l-1.855 1.855h5.574c.297 0 .538.24.538.537z"/><path id="b" d="M1175.59 111.51v7.197a1 1 0 0 0 1.685.728l4.493-4.225a.5.5 0 0 1 .687.003l4.49 4.283a1 1 0 0 0 1.69-.724V104a2 2 0 0 0-2-2h-9.045a2 2 0 0 0-2 2v.378"/></defs><use fill="#fff" xlink:href="#a" transform="rotate(-180 591 57)"/><use fill="#fff" fill-opacity="0" stroke="#fff" stroke-linecap="round" stroke-miterlimit="50" stroke-width="1.2" xlink:href="#b" transform="translate(-1175 -101)"/></svg>