<svg xmlns="http://www.w3.org/2000/svg" xmlns:xlink="http://www.w3.org/1999/xlink" width="20" height="21"><defs><path id="a" d="M870.682 472.3c0 .69.562 1.25 1.254 1.25.693 0 1.255-.56 1.255-1.25s-.562-1.25-1.255-1.25c-.692 0-1.254.56-1.254 1.25zm-4.932 0a1.257 1.257 0 1 0 2.414.476 1.247 1.247 0 0 0-.274-1.363 1.258 1.258 0 0 0-1.367-.27 1.25 1.25 0 0 0-.773 1.157zm-4.933 0c0 .69.562 1.25 1.255 1.25.692 0 1.254-.56 1.254-1.25s-.562-1.25-1.254-1.25c-.693 0-1.255.56-1.255 1.25zm9.865-4.079c0 .69.562 1.25 1.254 1.25.693 0 1.255-.56 1.255-1.25s-.562-1.25-1.255-1.25c-.692 0-1.254.56-1.254 1.25zm-4.932 0c0 .69.561 1.25 1.254 1.25s1.254-.56 1.254-1.25-.561-1.25-1.254-1.25-1.254.56-1.254 1.25zm-4.933 0c0 .69.562 1.25 1.255 1.25.692 0 1.254-.56 1.254-1.25s-.562-1.25-1.254-1.25c-.693 0-1.255.56-1.255 1.25zm14.572-4.843h-16.77v-1.797c0-.893.722-1.616 1.611-1.617h1.152v.692a.6.6 0 1 0 1.2 0v-.692h8.845v.692a.6.6 0 1 0 1.2 0v-.692h1.15c.89.001 1.611.724 1.613 1.616zm0 11.41a1.614 1.614 0 0 1-1.613 1.612H860.23a1.613 1.613 0 0 1-1.61-1.611v-10.221h16.77zm-1.613-16.024h-1.15V458a.6.6 0 0 0-1.2 0v.764h-8.844V458a.6.6 0 0 0-1.2 0v.764h-1.151a2.815 2.815 0 0 0-2.811 2.812v13.213a2.815 2.815 0 0 0 2.811 2.811h13.545a2.814 2.814 0 0 0 2.812-2.812v-13.212a2.814 2.814 0 0 0-2.812-2.812z"/></defs><use fill="#0dc1e8" xlink:href="#a" transform="translate(-857 -457)"/></svg>