<svg xmlns="http://www.w3.org/2000/svg" xmlns:xlink="http://www.w3.org/1999/xlink" width="18" height="22"><defs><path id="a" d="M923.78 102.53h-15.56a2.83 2.83 0 0 0-2.82 2.82v5.55a.6.6 0 0 0 1.2 0v-5.55a1.62 1.62 0 0 1 1.62-1.63h15.56a1.62 1.62 0 0 1 1.62 1.63v5.55a.6.6 0 0 0 1.2 0v-5.55a2.83 2.83 0 0 0-2.82-2.83z"/><path id="b" d="M923.16 110.502l-4.15 4.15a.622.622 0 1 1-.88-.88l3.09-3.09h-3.74a4.57 4.57 0 0 0-4.57 4.62v6.37a.625.625 0 1 1-1.25 0v-6.37c.003-1.212-.356-4.581.63-2.62a5.81 5.81 0 0 1 5.19-3.21h3.69l-3.09-3.08a.622.622 0 1 1 .88-.88l4.15 4.15c.179.16.25.41.18.64a.62.62 0 0 1-.13.2z"/></defs><use fill="#fff" xlink:href="#a" transform="translate(-907 -100)"/><use fill="#fff" xlink:href="#b" transform="rotate(-90 409.5 515.5)"/></svg>