<svg xmlns="http://www.w3.org/2000/svg" xmlns:xlink="http://www.w3.org/1999/xlink" width="20" height="22"><defs><path id="a" d="M1397.658 104.145a.6.6 0 0 0-.847-.85l-.525.525a3.468 3.468 0 0 0-3.46-3.42h-1.358a.6.6 0 0 0 0 1.2h1.357a2.27 2.27 0 0 1 2.263 2.211l-.514-.515a.599.599 0 0 0-.847.848l1.54 1.544a.599.599 0 0 0 .847 0l1.543-1.543zm-1.877 14.655a1.604 1.604 0 0 1-1.598 1.6h-7.34a1.604 1.604 0 0 1-1.598-1.6v-10.283a1.604 1.604 0 0 1 1.598-1.6h5.064c.23 0 .451.092.613.256l3.006 3.008a.865.865 0 0 1 .255.615zm-11.739-1.339h-3.072a1.605 1.605 0 0 1-1.6-1.6v-10.287a1.605 1.605 0 0 1 1.6-1.6h5.066a.863.863 0 0 1 .619.266l1.478 1.478h-1.288a2.806 2.806 0 0 0-2.803 2.799zm9.333-11.141a2.051 2.051 0 0 0-1.462-.606h-2.084l-2.324-2.325a2.064 2.064 0 0 0-1.467-.617h-5.068a2.806 2.806 0 0 0-2.8 2.8v10.28a2.806 2.806 0 0 0 2.8 2.8h3.072v.14a2.806 2.806 0 0 0 2.8 2.8h7.343a2.805 2.805 0 0 0 2.8-2.8v-8a2.058 2.058 0 0 0-.605-1.464z"/></defs><use fill="#fff" xlink:href="#a" transform="translate(-1378 -100)"/></svg>