<svg xmlns="http://www.w3.org/2000/svg" xmlns:xlink="http://www.w3.org/1999/xlink" width="22" height="20"><defs><path id="a" d="M801.918 110.075a3.74 3.74 0 1 0-1.676 6.263 3.837 3.837 0 0 0 5.295 0 3.746 3.746 0 0 0 0-5.296 3.748 3.748 0 0 0-3.62-.967zm6.653 10.15l-2.658-2.66a4.894 4.894 0 0 1-6.52-.383 4.944 4.944 0 0 1-.168-6.85 4.938 4.938 0 0 1 6.835-.434 4.944 4.944 0 0 1 .698 6.817l2.66 2.662a.6.6 0 0 1-.847.848zm-18.526-16.888a1.664 1.664 0 0 0-.433 1.289l.15 8.987a1.674 1.674 0 0 0 1.672 1.523h4.038a.6.6 0 1 1 0 1.2h-4.038a2.87 2.87 0 0 1-2.871-2.619l-.151-8.987a2.881 2.881 0 0 1 2.872-3.14h2.149c.765-.002 1.5.302 2.039.845l1.242 1.24a1.67 1.67 0 0 0 1.19.493h5.125a2.883 2.883 0 0 1 2.876 3.145.592.592 0 0 1-.652.543.6.6 0 0 1-.548-.652 1.685 1.685 0 0 0-1.676-1.838h-5.124a2.864 2.864 0 0 1-2.038-.842l-1.244-1.242a1.671 1.671 0 0 0-1.19-.494h-2.145a1.665 1.665 0 0 0-1.243.549z"/></defs><use fill="#fff" xlink:href="#a" transform="translate(-788 -101)"/></svg>