<svg xmlns="http://www.w3.org/2000/svg" xmlns:xlink="http://www.w3.org/1999/xlink" width="24" height="20"><defs><path id="a" d="M855.156 99.988a.6.6 0 0 0-.854.844l1.16 1.172h-5.552a.6.6 0 0 0 0 1.2h5.563l-1.169 1.17a.6.6 0 0 0 .85.847l2.183-2.18a.6.6 0 0 0 0-.847zm-3.756 19.014a2.4 2.4 0 0 1-2.4 2.4h-7a2.4 2.4 0 0 1-2.4-2.4v-14a2.4 2.4 0 0 1 2.4-2.4h3.9c.372-.001.728.147.99.41l4.1 4.1c.263.262.411.618.41.99zm.438-12.74l-4.1-4.1a2.583 2.583 0 0 0-1.838-.76H842a3.6 3.6 0 0 0-3.6 3.6v14a3.6 3.6 0 0 0 3.6 3.6h7a3.6 3.6 0 0 0 3.6-3.6v-10.9a2.583 2.583 0 0 0-.762-1.84z"/></defs><use fill="#fff" xlink:href="#a" transform="translate(-836 -101)"/></svg>