<svg xmlns="http://www.w3.org/2000/svg" xmlns:xlink="http://www.w3.org/1999/xlink" width="20" height="20"><defs><path id="a" d="M204 157a3 3 0 0 1 3-3h12a3 3 0 0 1 3 3v12a3 3 0 0 1-3 3h-12a3 3 0 0 1-3-3z"/><path id="b" d="M212.62 154H219a3 3 0 0 1 3 3v12a3 3 0 0 1-3 3h-6.38z"/><path id="c" d="M217.307 160.81l4.617 4.372h-9.234z"/></defs><use fill="#fff" fill-opacity="0" stroke="#3f4367" stroke-miterlimit="50" xlink:href="#a" transform="translate(-203 -153)"/><use fill="#3f4367" xlink:href="#b" transform="translate(-203 -153)"/><use fill="#1d1f2e" xlink:href="#c" transform="rotate(-90 39.5 187.5)"/></svg>