<svg xmlns="http://www.w3.org/2000/svg" xmlns:xlink="http://www.w3.org/1999/xlink" width="22" height="20"><defs><path id="a" d="M721.87 211.186a1.523 1.523 0 0 1-1.409-.942 1.532 1.532 0 0 1 .33-1.666 1.52 1.52 0 0 1 1.66-.332c.569.237.94.794.94 1.412 0 .844-.681 1.528-1.522 1.53zm-9.281-14.76a1.528 1.528 0 1 1 2.823-1.17 1.528 1.528 0 0 1-2.823 1.17zm2.94 13.237a1.53 1.53 0 0 1-1.526 1.532 1.53 1.53 0 0 1-1.528-1.531 1.53 1.53 0 0 1 1.526-1.533 1.533 1.533 0 0 1 1.527 1.532zm-7.863 0a1.532 1.532 0 1 1-3.064 0 1.532 1.532 0 0 1 3.064 0zm14.808-2.66v-2.6a2.417 2.417 0 0 0-2.413-2.417h-5.46v-3.489a2.727 2.727 0 1 0-1.2 0v3.49h-5.455a2.42 2.42 0 0 0-2.418 2.417v2.6a2.728 2.728 0 1 0 1.2 0v-2.6a1.22 1.22 0 0 1 1.218-1.218h5.455v3.816a2.727 2.727 0 1 0 1.2 0v-3.815h5.46a1.218 1.218 0 0 1 1.214 1.218v2.6a2.727 2.727 0 1 0 1.2 0z"/></defs><use fill="#fff" xlink:href="#a" transform="translate(-703 -193)"/></svg>