<svg xmlns="http://www.w3.org/2000/svg" xmlns:xlink="http://www.w3.org/1999/xlink" width="22" height="11"><defs><path id="a" d="M1035 200.85a1.9 1.9 0 1 0 0 3.8 1.9 1.9 0 0 0 0-3.8zm3.1 1.9a3.1 3.1 0 1 1-6.2 0 3.1 3.1 0 0 1 6.2 0zm-12.93-.27a.38.38 0 0 0 0 .54l3.71 3.73a.605.605 0 0 1-.88.83l-3.68-3.72a1.58 1.58 0 0 1 0-2.23l3.68-3.71a.605.605 0 1 1 .88.83zm20.501 1.39l-3.672 3.71a.6.6 0 0 1-.849 0 .602.602 0 0 1 0-.85l3.703-3.71a.38.38 0 0 0 0-.54l-3.733-3.73a.606.606 0 0 1 .025-.855.603.603 0 0 1 .854.025l3.702 3.71a1.582 1.582 0 0 1-.03 2.24z"/></defs><use fill="#fff" xlink:href="#a" transform="translate(-1024 -197)"/></svg>