<svg xmlns="http://www.w3.org/2000/svg" xmlns:xlink="http://www.w3.org/1999/xlink" width="22" height="22"><defs><path id="a" d="M431.5 198.4a.6.6 0 0 0-.6.6v8a.6.6 0 0 0 1.2 0v-8a.6.6 0 0 0-.6-.6zm-3.067 2.492a.6.6 0 0 0-1.2 0V207a.6.6 0 0 0 1.2 0zm-3.666 1.891a.6.6 0 0 0-1.2 0V207a.6.6 0 0 0 1.2 0zm-4.267 1.292a.6.6 0 0 0-.6.598v2.319a.6.6 0 0 0 1.2 0v-2.319a.6.6 0 0 0-.6-.598zM435.4 209a3.4 3.4 0 0 1-3.4 3.4h-12a3.4 3.4 0 0 1-3.4-3.4v-12a3.4 3.4 0 0 1 3.4-3.4h12a3.4 3.4 0 0 1 3.4 3.4zm-3.4-16.6h-12a4.6 4.6 0 0 0-4.6 4.6v12a4.6 4.6 0 0 0 4.6 4.6h12a4.6 4.6 0 0 0 4.6-4.6v-12a4.6 4.6 0 0 0-4.6-4.6z"/></defs><use fill="#fff" xlink:href="#a" transform="translate(-415 -192)"/></svg>