<svg xmlns="http://www.w3.org/2000/svg" xmlns:xlink="http://www.w3.org/1999/xlink" width="18" height="22"><defs><path id="a" d="M261.982 204.824a.82.82 0 0 1-.821-.82.82.82 0 0 1 .824-.816.82.82 0 0 1 .822.818.823.823 0 0 1-.825.813zm0-2.837a2.023 2.023 0 1 0 2.024 2.024 2.027 2.027 0 0 0-2.024-2.029zm3.588 2.278l-.56.239a.985.985 0 0 0-.538.574.984.984 0 0 0 .01.72l.226.548a3.546 3.546 0 0 1-.37.372l-.553-.221a.988.988 0 0 0-.653-.023.667.667 0 0 0-.1.032 1 1 0 0 0-.545.539l-.224.538a3.266 3.266 0 0 1-.526 0l-.228-.532a1.035 1.035 0 0 0-1.329-.551l-.515.211a3.657 3.657 0 0 1-.379-.379l.207-.514a1.031 1.031 0 0 0-.009-.773 1.027 1.027 0 0 0-.553-.562l-.5-.208a3.08 3.08 0 0 1-.001-.536l.5-.213c.245-.103.44-.298.545-.542 0-.01.01-.021.014-.032.101-.25.101-.53 0-.78l-.2-.493a3.7 3.7 0 0 1 .377-.38l.524.21c.517.2 1.099-.043 1.32-.551l.22-.526a3.08 3.08 0 0 1 .526 0l.233.548c.223.499.799.733 1.306.531l.541-.222a3.5 3.5 0 0 1 .372.37l-.226.562a.989.989 0 0 0 .008.738l.01.022c.1.238.288.427.526.526l.552.23c.007.088.012.177.012.267 0 .09-.012.172-.02.256zm.79-1.5l-.687-.286.278-.693a.6.6 0 0 0-.07-.575 4.765 4.765 0 0 0-1.101-1.1.607.607 0 0 0-.577-.066l-.687.282-.293-.684a.6.6 0 0 0-.457-.357 4.65 4.65 0 0 0-1.56.006.6.6 0 0 0-.454.36l-.285.679-.682-.273a.601.601 0 0 0-.576.07 4.802 4.802 0 0 0-1.101 1.111.6.6 0 0 0-.065.576l.275.669-.672.287a.6.6 0 0 0-.356.456 4.73 4.73 0 0 0-.067.776c.001.266.025.531.07.793a.6.6 0 0 0 .361.455l.667.277-.272.678a.6.6 0 0 0 .069.574 4.81 4.81 0 0 0 1.105 1.11c.169.12.387.146.579.067l.674-.277.293.683a.6.6 0 0 0 .453.356 4.45 4.45 0 0 0 1.563 0 .6.6 0 0 0 .456-.362l.284-.681.7.279c.19.076.407.05.574-.07a4.783 4.783 0 0 0 1.101-1.1.6.6 0 0 0 .066-.578l-.282-.685.69-.294a.6.6 0 0 0 .357-.457 4.8 4.8 0 0 0 .065-.766 4.758 4.758 0 0 0-.069-.788.6.6 0 0 0-.366-.452zM269.4 210a2.4 2.4 0 0 1-2.4 2.4h-10a2.4 2.4 0 0 1-2.4-2.4v-14a2.4 2.4 0 0 1 2.4-2.4h6.9c.371.001.727.148.99.41l4.1 4.1a1.4 1.4 0 0 1 .41.99zm.438-12.74l-4.1-4.1a2.582 2.582 0 0 0-1.838-.76H257a3.6 3.6 0 0 0-3.6 3.6v14a3.6 3.6 0 0 0 3.6 3.6h10a3.6 3.6 0 0 0 3.6-3.6v-10.9a2.583 2.583 0 0 0-.762-1.84z"/></defs><use fill="#fff" xlink:href="#a" transform="translate(-253 -192)"/></svg>