<svg xmlns="http://www.w3.org/2000/svg" xmlns:xlink="http://www.w3.org/1999/xlink" width="20" height="19"><defs><path id="a" d="M1125.34 200.5a.6.6 0 0 0-.57.62v4.7a.6.6 0 0 0 .57.62h7.15a.62.62 0 0 1 .62.62v4.09l8.51-7.4a.38.38 0 0 0 0-.56l-8.57-7.4.05 4.1a.62.62 0 0 1-.62.62zm7.75 11.93a1.23 1.23 0 0 1-1.22-1.24v-3.48h-6.53a1.84 1.84 0 0 1-1.82-1.86v-4.7a1.84 1.84 0 0 1 1.82-1.86h6.53v-3.47a1.23 1.23 0 0 1 .72-1.13 1.19 1.19 0 0 1 1.29.19l8.57 7.4a1.63 1.63 0 0 1 0 2.45l-8.57 7.4a1.2 1.2 0 0 1-.79.3z"/></defs><use fill="#fff" xlink:href="#a" transform="translate(-1123 -194)"/></svg>