<svg xmlns="http://www.w3.org/2000/svg" xmlns:xlink="http://www.w3.org/1999/xlink" width="14" height="22"><defs><path id="a" d="M643.748 195.656a1 1 0 0 0-.997-1.006 1 1 0 1 0 1 1zm-3.486 0a1 1 0 0 0-.996-1.006 1 1 0 1 0 1 1zm6.643 10.594a5.9 5.9 0 0 1-11.8 0v-6.953h11.8zm-10.1-12.9h8.408v4.748h-8.408zm10.7 4.748h-1.09v-5.348a.6.6 0 0 0-.6-.6h-9.61a.6.6 0 0 0-.6.6v5.348h-1.1a.6.6 0 0 0-.6.6v7.552a7.1 7.1 0 1 0 14.19 0v-7.553a.6.6 0 0 0-.59-.599z"/></defs><use fill="#fff" xlink:href="#a" transform="translate(-634 -192)"/></svg>