<svg xmlns="http://www.w3.org/2000/svg" xmlns:xlink="http://www.w3.org/1999/xlink" width="26" height="15"><defs><path id="a" d="M801.231 197.845a.6.6 0 0 1 .601.598v8.608a.6.6 0 0 1-1.2 0v-8.607a.6.6 0 0 1 .6-.599zm-3.369.6c0-.858-.696-1.554-1.554-1.555h-8.616a1.556 1.556 0 0 0-1.553 1.554v8.615c0 .858.696 1.554 1.554 1.555h8.615a1.556 1.556 0 0 0 1.554-1.555zm1.2 8.615a2.757 2.757 0 0 1-2.754 2.754h-8.616a2.757 2.757 0 0 1-2.754-2.754v-8.616a2.757 2.757 0 0 1 2.754-2.754h8.615a2.757 2.757 0 0 1 2.755 2.754zm4.938-7.677a.6.6 0 0 1 .6.599v5.54a.6.6 0 0 1-1.2 0v-5.539a.6.6 0 0 1 .6-.6zm-20.631-.939v8.616a.6.6 0 0 1-1.2 0v-8.615a.6.6 0 0 1 1.2-.001zm-2.769 1.538v5.54a.6.6 0 0 1-1.2 0v-5.54a.6.6 0 0 1 1.2 0z"/></defs><use fill="#fff" xlink:href="#a" transform="translate(-779 -195)"/></svg>