<svg xmlns="http://www.w3.org/2000/svg" xmlns:xlink="http://www.w3.org/1999/xlink" width="22" height="18"><defs><path id="a" d="M305.8 208.688h-1.245a2.026 2.026 0 0 1-2.011-1.839l.372.372a.6.6 0 1 0 .848-.848l-1.415-1.415a.615.615 0 0 0-.85 0l-1.413 1.415a.6.6 0 0 0 .85.848l.406-.406a3.225 3.225 0 0 0 3.214 3.072h1.244a.6.6 0 0 0 0-1.199zm4.566-11.054h1.243a2.028 2.028 0 0 1 2.01 1.843l-.371-.373a.6.6 0 0 0-1.005.271.602.602 0 0 0 .157.58l1.418 1.417a.6.6 0 0 0 .848 0l1.414-1.417a.602.602 0 0 0-.015-.835.6.6 0 0 0-.833-.015l-.406.407a3.228 3.228 0 0 0-3.214-3.079h-1.245a.6.6 0 0 0-.001 1.201zm6.739 12.395a.727.727 0 0 1-.728.665h-6.148a.729.729 0 0 1-.729-.658l-.421-5.252a.733.733 0 0 1 .729-.799h1.251a.73.73 0 0 1 .519.216l1.117 1.113a.6.6 0 0 0 .424.175h3.541a.733.733 0 0 1 .729.81zm.988-5.109a1.937 1.937 0 0 0-1.427-.629h-3.3l-.94-.939a1.92 1.92 0 0 0-1.366-.566h-1.25a1.933 1.933 0 0 0-1.926 2.1l.422 5.261a1.925 1.925 0 0 0 1.925 1.753h6.153a1.926 1.926 0 0 0 1.926-1.766l.28-3.737a1.939 1.939 0 0 0-.496-1.476zm-11.464-3.582a.73.73 0 0 1-.73.666h-6.146a.727.727 0 0 1-.728-.658l-.425-5.252a.73.73 0 0 1 .728-.799h1.255c.195 0 .382.078.52.216l1.114 1.113a.6.6 0 0 0 .424.175h3.54a.733.733 0 0 1 .728.81zm.989-5.107a1.937 1.937 0 0 0-1.428-.631h-3.3l-.94-.939a1.942 1.942 0 0 0-1.364-.561h-1.253a1.93 1.93 0 0 0-1.925 2.1l.422 5.26c.086.997.924 1.76 1.925 1.756h6.153a1.927 1.927 0 0 0 1.927-1.766l.28-3.737a1.937 1.937 0 0 0-.497-1.482z"/></defs><use fill="#fff" xlink:href="#a" transform="translate(-297 -194)"/></svg>