<svg xmlns="http://www.w3.org/2000/svg" xmlns:xlink="http://www.w3.org/1999/xlink" width="16" height="19"><defs><path id="a" d="M376.576 204.962a1.352 1.352 0 0 1-1.354-1.229l-.62-7.731a1.36 1.36 0 0 1 1.354-1.482h1.84c.36 0 .707.143.96.4l1.07 1.064a2.577 2.577 0 0 0 1.809.75h4.4a1.36 1.36 0 0 1 1.353 1.494l-.415 5.5c-.06.702-.65 1.24-1.354 1.236zm11.794 4.575h-5.46a1.99 1.99 0 0 0-1.315-1.35v-2.026h4.023a2.549 2.549 0 0 0 2.55-2.336l.415-5.5a2.56 2.56 0 0 0-2.548-2.79h-4.4a1.367 1.367 0 0 1-.961-.4l-1.067-1.065a2.538 2.538 0 0 0-1.81-.75h-1.842a2.559 2.559 0 0 0-2.55 2.782l.62 7.729a2.548 2.548 0 0 0 2.55 2.33h3.82v2.024a1.99 1.99 0 0 0-1.316 1.352h-5.459a.6.6 0 1 0 0 1.2h5.493a1.988 1.988 0 0 0 3.764 0h5.493a.6.6 0 0 0 0-1.2z"/></defs><use fill="#fff" xlink:href="#a" transform="translate(-373 -193)"/></svg>