<svg xmlns="http://www.w3.org/2000/svg" xmlns:xlink="http://www.w3.org/1999/xlink" width="22" height="20"><defs><path id="a" d="M937.996 209.705c-1.472 0-2.874.55-3.948 1.55a.6.6 0 0 0 .816.879c1.704-1.584 4.56-1.584 6.264 0a.593.593 0 0 0 .846-.031.6.6 0 0 0-.03-.848 5.772 5.772 0 0 0-3.948-1.55zm9.404-3.8c0 .895-.728 1.622-1.622 1.622h-15.556a1.624 1.624 0 0 1-1.622-1.622v-9.883c0-.895.728-1.623 1.622-1.623h15.556c.895 0 1.622.728 1.622 1.623zm-1.622-12.705h-15.556a2.825 2.825 0 0 0-2.822 2.822v9.883a2.825 2.825 0 0 0 2.822 2.822h15.556a2.825 2.825 0 0 0 2.822-2.822v-9.883a2.825 2.825 0 0 0-2.822-2.822z"/></defs><use fill="#fff" xlink:href="#a" transform="translate(-927 -193)"/></svg>