<svg xmlns="http://www.w3.org/2000/svg" xmlns:xlink="http://www.w3.org/1999/xlink" width="20" height="20"><defs><path id="a" d="M475.279 211.36a.6.6 0 0 1 0 1.2h-1.968a.6.6 0 0 1 0-1.2zm2.921-17.4a.6.6 0 0 1-.6.6h-1.969a.6.6 0 0 1 0-1.2h1.969a.6.6 0 0 1 .6.6zm3.154 1.463a1.21 1.21 0 0 0-.919-.843.6.6 0 0 1 .231-1.178 2.389 2.389 0 0 1 1.84 1.69.6.6 0 1 1-1.152.331zm.646 12.023a.6.6 0 0 1 .6.6v1.967a.6.6 0 0 1-1.2 0v-1.969a.6.6 0 0 1 .6-.6zm.6-9.244v1.971a.6.6 0 0 1-1.2 0v-1.971a.6.6 0 0 1 1.2 0zm-.6 4.323a.601.601 0 0 1 .6.6v1.96a.6.6 0 0 1-1.2 0v-1.962a.6.6 0 0 1 .6-.598zm-1.8 8.835a.61.61 0 0 1 .608.597.591.591 0 0 1-.589.6h-1.987a.6.6 0 0 1 0-1.2h1.968zm-16.624-3.234a.6.6 0 0 1-.176-.424v-1.965a.6.6 0 0 1 1.2 0v1.965a.6.6 0 0 1-1.024.424zm.424-4.741a.6.6 0 0 1-.6-.6v-1.969a.6.6 0 0 1 1.2 0v1.969a.6.6 0 0 1-.6.6zm9.278-9.425a.6.6 0 0 1-.6.604h-1.968a.6.6 0 0 1 0-1.2h1.968a.6.6 0 0 1 .6.6zm-9.878 3.896v-1.963a.6.6 0 0 1 1.2 0v1.963a.6.6 0 0 1-1.2 0zm4.957-3.896a.6.6 0 0 1-.6.6h-1.962a.6.6 0 0 1-.005-1.2h1.968a.6.6 0 0 1 .6.6zm-2.799 17.383a.602.602 0 0 1-.239 1.181 2.394 2.394 0 0 1-1.83-1.707.604.604 0 0 1 .137-.597.598.598 0 0 1 1.017.269c.124.432.476.76.915.852zm5.4.617a.6.6 0 0 1-.6.6h-1.968a.6.6 0 0 1 0-1.2h1.968a.6.6 0 0 1 .6.6z"/></defs><use fill="#fff" xlink:href="#a" transform="translate(-463 -193)"/></svg>