<svg xmlns="http://www.w3.org/2000/svg" xmlns:xlink="http://www.w3.org/1999/xlink" width="22" height="18"><defs><path id="a" d="M897.4 196.75a1.4 1.4 0 0 0-1.4-1.4h-12a1.4 1.4 0 0 0-1.4 1.4v12a1.4 1.4 0 0 0 1.4 1.4h12a1.4 1.4 0 0 0 1.4-1.4zm1.2 6.6v2.8h1.4a.6.6 0 0 1 0 1.2h-1.4v1.4a2.6 2.6 0 0 1-2.6 2.6h-12a2.6 2.6 0 0 1-2.6-2.6v-1.4H880a.6.6 0 0 1 0-1.2h1.4v-2.8H880a.6.6 0 0 1 0-1.2h1.4v-2.8H880a.6.6 0 0 1 0-1.2h1.4v-1.4a2.6 2.6 0 0 1 2.6-2.6h12a2.6 2.6 0 0 1 2.6 2.6v1.4h1.4a.6.6 0 0 1 0 1.2h-1.4v2.8h1.4a.6.6 0 0 1 0 1.2zm-5.2-3.6a.4.4 0 0 0-.4-.4h-6a.4.4 0 0 0-.4.4v6c0 .22.18.4.4.4h6a.4.4 0 0 0 .4-.4zm1.2 0v6a1.6 1.6 0 0 1-1.6 1.6h-6a1.6 1.6 0 0 1-1.6-1.6v-6a1.6 1.6 0 0 1 1.6-1.6h6a1.6 1.6 0 0 1 1.6 1.6z"/></defs><use fill="#fff" xlink:href="#a" transform="translate(-879 -194)"/></svg>