<svg xmlns="http://www.w3.org/2000/svg" xmlns:xlink="http://www.w3.org/1999/xlink" width="22" height="21"><defs><path id="a" d="M1094.546 203.726a.6.6 0 0 1-.13.2l-2.88 2.87a.601.601 0 0 1-.85-.85l1.86-1.86h-8v8l1.86-1.86a.601.601 0 0 1 .85.85l-2.88 2.88a.6.6 0 0 1-.85 0l-2.83-2.92a.601.601 0 0 1 .85-.85l1.86 1.86v-8h-8l1.89 1.91a.601.601 0 1 1-.85.85l-2.87-2.89a.6.6 0 0 1 0-.85l2.88-2.87a.601.601 0 0 1 .85.85l-1.86 1.85h8v-8l-1.91 1.9a.601.601 0 1 1-.85-.85l2.88-2.88a.6.6 0 0 1 .85 0l2.88 2.89a.601.601 0 1 1-.85.85l-1.85-1.86v8h8l-1.9-1.91a.601.601 0 0 1 .85-.85l2.88 2.88a.6.6 0 0 1 .13.65z"/></defs><use fill="#fff" xlink:href="#a" transform="translate(-1073 -193)"/></svg>