<svg xmlns="http://www.w3.org/2000/svg" xmlns:xlink="http://www.w3.org/1999/xlink" width="22" height="22"><defs><path id="a" d="M850.886 211.643c-.707.67-1.816.67-2.522 0a1.785 1.785 0 0 1 0-2.521l1.258-1.257 1.262 1.26a1.78 1.78 0 0 1 0 2.52zm.84-3.373l-1.682-1.682a.6.6 0 0 0-.848 0l-1.68 1.68a2.979 2.979 0 1 0 4.212 0zm-3.565-5.381c-.4.4-1.298.389-2.406-.04a12.28 12.28 0 0 1-4.009-2.781 12.265 12.265 0 0 1-2.778-4.018c-.429-1.1-.444-2-.04-2.405a1.24 1.24 0 0 1 .9-.293c.518.02 1.029.132 1.507.333a12.267 12.267 0 0 1 4.008 2.78 12.285 12.285 0 0 1 2.779 4.013c.428 1.105.442 2.005.04 2.409zm-8.836 6.017a1.782 1.782 0 0 1-2.255-.215l-3.95-3.948a1.78 1.78 0 0 1-.216-2.252l4.67-6.895c.07.304.162.603.274.894a13.47 13.47 0 0 0 3.051 4.42 13.481 13.481 0 0 0 4.427 3.05c.293.112.594.204.9.275zm9.593-5.09c.032-.03.07-.05.1-.081.772-.773.854-2.084.23-3.692a13.476 13.476 0 0 0-3.049-4.426 13.476 13.476 0 0 0-4.426-3.051c-1.609-.626-2.92-.542-3.69.23-.044.043-.076.093-.115.139a.588.588 0 0 0-.117.11l-5.94 8.777a2.983 2.983 0 0 0 .36 3.775l3.951 3.953a2.983 2.983 0 0 0 3.777.358l8.775-5.938a.594.594 0 0 0 .144-.154z"/></defs><use fill="#fff" xlink:href="#a" transform="translate(-831 -192)"/></svg>