<svg xmlns="http://www.w3.org/2000/svg" xmlns:xlink="http://www.w3.org/1999/xlink" width="18" height="20"><defs><path id="a" d="M569 205.876a2.872 2.872 0 1 1 0-5.746 2.872 2.872 0 0 1 0 5.747zm0-6.943a4.075 4.075 0 0 0-4.072 4.077 4.075 4.075 0 0 0 4.072 4.077 4.075 4.075 0 0 0 4.072-4.077 4.078 4.078 0 0 0-4.072-4.077zm7.876 6.973l-1.422 2.469a.329.329 0 0 1-.451.122l-.981-.565a1.505 1.505 0 0 0-1.586.037c-.26.174-.533.328-.816.459-.53.251-.866.788-.86 1.374v1.149a.33.33 0 0 1-.33.33h-2.85a.33.33 0 0 1-.33-.33v-1.146a1.506 1.506 0 0 0-.862-1.375 5.832 5.832 0 0 1-.826-.461 1.452 1.452 0 0 0-.81-.241c-.272 0-.538.072-.773.207l-.98.561a.332.332 0 0 1-.45-.121l-1.425-2.47a.33.33 0 0 1 .122-.451l.846-.489c.522-.3.817-.881.753-1.48a6.102 6.102 0 0 1-.035-.666 4.69 4.69 0 0 1 .07-.869.6.6 0 0 0-.29-.631l-1.345-.774a.331.331 0 0 1-.121-.451l1.42-2.466a.325.325 0 0 1 .2-.154.318.318 0 0 1 .256.031l.713.414a1.523 1.523 0 0 0 1.662-.11c.302-.22.624-.411.962-.571a1.55 1.55 0 0 0 .917-1.4v-.78a.33.33 0 0 1 .33-.33h2.85a.33.33 0 0 1 .33.33v.781a1.55 1.55 0 0 0 .915 1.4c.335.16.655.351.955.571a1.519 1.519 0 0 0 1.66.112l.706-.417a.317.317 0 0 1 .25-.033.325.325 0 0 1 .2.154l1.42 2.466a.33.33 0 0 1-.12.45l-1.345.775a.6.6 0 0 0-.29.631c.05.287.073.578.07.869 0 .223-.011.445-.035.667-.064.6.232 1.18.754 1.48l.847.489a.33.33 0 0 1 .125.452zm.479-1.49l-.846-.489a.321.321 0 0 1-.162-.311 7.247 7.247 0 0 0 .012-1.462l.995-.574a1.532 1.532 0 0 0 .562-2.089l-1.416-2.462a1.529 1.529 0 0 0-2.094-.56l-.715.415a.323.323 0 0 1-.348-.042 7.084 7.084 0 0 0-1.15-.687.369.369 0 0 1-.23-.314v-.781a1.532 1.532 0 0 0-1.53-1.53h-2.853a1.532 1.532 0 0 0-1.53 1.53v.78a.368.368 0 0 1-.23.315 7.112 7.112 0 0 0-1.156.687.331.331 0 0 1-.353.042l-.711-.415a1.529 1.529 0 0 0-2.094.56l-1.422 2.466c-.42.733-.17 1.667.562 2.09l.995.573a7.352 7.352 0 0 0 .012 1.462.32.32 0 0 1-.161.311l-.846.488a1.532 1.532 0 0 0-.563 2.086l1.422 2.47a1.533 1.533 0 0 0 2.09.562l.98-.566a.311.311 0 0 1 .317-.009c.317.212.652.399 1 .557a.307.307 0 0 1 .16.284v1.148a1.532 1.532 0 0 0 1.53 1.53h2.85a1.532 1.532 0 0 0 1.53-1.53v-1.146a.308.308 0 0 1 .162-.284 7.04 7.04 0 0 0 .985-.554.306.306 0 0 1 .317.008l.982.565c.732.42 1.666.168 2.089-.562l1.42-2.473a1.532 1.532 0 0 0-.562-2.089z"/></defs><use fill="#fff" xlink:href="#a" transform="translate(-560 -193)"/></svg>