<svg xmlns="http://www.w3.org/2000/svg" xmlns:xlink="http://www.w3.org/1999/xlink" width="22" height="22"><defs><path id="a" d="M988.077 209.835l-1.476 1.476v-6.356a.6.6 0 1 0-1.2 0v6.356l-1.476-1.476a.601.601 0 0 0-.849.849l2.5 2.5a.617.617 0 0 0 .424.176.604.604 0 0 0 .424-.176l2.5-2.5a.601.601 0 0 0 0-.849.598.598 0 0 0-.847 0zm8.524-6.384a4.885 4.885 0 0 1-4.88 4.88h-2.44a.6.6 0 1 1 0-1.2h2.441a3.684 3.684 0 0 0 3.678-3.68 3.673 3.673 0 0 0-3.199-3.642.6.6 0 0 1-.512-.716 4.756 4.756 0 0 0-4.645-5.742 4.748 4.748 0 0 0-4.655 3.817.58.58 0 0 1-.633.483c-.135-.009-.27-.02-.405-.02a4.755 4.755 0 0 0-4.75 4.75 4.755 4.755 0 0 0 4.749 4.75h1.371a.6.6 0 1 1 0 1.2h-1.369a5.958 5.958 0 0 1-5.952-5.951 5.957 5.957 0 0 1 5.934-5.95 5.953 5.953 0 0 1 5.709-4.28 5.957 5.957 0 0 1 5.915 6.585 4.881 4.881 0 0 1 3.643 4.716z"/></defs><use fill="#fff" xlink:href="#a" transform="translate(-975 -192)"/></svg>