<svg xmlns="http://www.w3.org/2000/svg" xmlns:xlink="http://www.w3.org/1999/xlink" width="11" height="9" viewBox="0 0 11 9"><defs><path id="f48ka" d="M56.08 371.17a2 2 0 0 1 2-2h6.83a2 2 0 0 1 2 2v4.67a2 2 0 0 1-2 2h-6.83a2 2 0 0 1-2-2z"/><path id="f48kc" d="M57.17 377.835l3.52-4.875 3.522 4.875z"/><path id="f48kd" d="M60.96 377.83l2.438-3.25 2.437 3.25z"/><path id="f48ke" d="M64.21 371.605c0-.45.363-.815.81-.815.447 0 .81.365.81.815 0 .45-.363.815-.81.815a.813.813 0 0 1-.81-.815z"/><clipPath id="f48kb"><use xlink:href="#f48ka"/></clipPath></defs><g><g transform="translate(-56 -369)"><g><use fill="#f3c204" xlink:href="#f48ka"/></g><g clip-path="url(#f48kb)"><use fill="#866c06" xlink:href="#f48kc"/></g><g clip-path="url(#f48kb)"><use fill="#5b4903" xlink:href="#f48kd"/></g><g clip-path="url(#f48kb)"><use fill="#544509" xlink:href="#f48ke"/></g></g></g></svg>