<svg xmlns="http://www.w3.org/2000/svg" xmlns:xlink="http://www.w3.org/1999/xlink" width="18" height="22"><defs><path id="a" d="M1302 117.6a2.4 2.4 0 0 1-2.4 2.4h-10a2.4 2.4 0 0 1-2.4-2.4v-14a2.4 2.4 0 0 1 2.4-2.4h6.9c.371.001.727.148.99.41l4.1 4.1a1.4 1.4 0 0 1 .41.99zm.438-12.74l-4.1-4.1a2.582 2.582 0 0 0-1.838-.76h-6.9a3.6 3.6 0 0 0-3.6 3.6v14a3.6 3.6 0 0 0 3.6 3.6h10a3.6 3.6 0 0 0 3.6-3.6v-10.9a2.583 2.583 0 0 0-.762-1.84z"/><path id="b" d="M1294.6 110.141v4.992"/></defs><use fill="#fff" xlink:href="#a" transform="translate(-1286 -100)"/><use fill="#fff" fill-opacity="0" stroke="#fff" stroke-linecap="round" stroke-miterlimit="50" stroke-width="1.2" xlink:href="#b" transform="translate(-1286 -100)"/></svg>