<svg xmlns="http://www.w3.org/2000/svg" xmlns:xlink="http://www.w3.org/1999/xlink" width="18" height="22"><defs><path id="a" d="M335.4 117c0 1.875-1.525 3.4-3.4 3.4h-8a3.404 3.404 0 0 1-3.4-3.4v-6c0-1.875 1.525-3.4 3.4-3.4h8c1.875 0 3.4 1.525 3.4 3.4zm-2.8-10.561V105a4.613 4.613 0 0 0-1.349-3.257A4.61 4.61 0 0 0 328 100.4a4.574 4.574 0 0 0-3.254 1.347.6.6 0 1 0 .85.849c1.277-1.277 3.508-1.285 4.807-.004.643.651.997 1.507.997 2.408v1.4H324a4.605 4.605 0 0 0-4.6 4.6v6c0 2.537 2.063 4.6 4.6 4.6h8c2.536 0 4.6-2.063 4.6-4.6v-6a4.607 4.607 0 0 0-4-4.561z"/></defs><use fill="#fff" xlink:href="#a" transform="translate(-319 -100)"/></svg>