<svg xmlns="http://www.w3.org/2000/svg" xmlns:xlink="http://www.w3.org/1999/xlink" width="25" height="25" viewBox="0 0 25 25"><defs><path id="uso1a" d="M117 29.5a2.5 2.5 0 1 1 5 0 2.5 2.5 0 0 1-5 0z"/><path id="uso1b" d="M117 39.5a2.5 2.5 0 1 1 5 0 2.5 2.5 0 0 1-5 0z"/><path id="uso1c" d="M117 49.5a2.5 2.5 0 1 1 5 0 2.5 2.5 0 0 1-5 0z"/><path id="uso1d" d="M127 29.5a2.5 2.5 0 1 1 5 0 2.5 2.5 0 0 1-5 0z"/><path id="uso1e" d="M127 39.5a2.5 2.5 0 1 1 5 0 2.5 2.5 0 0 1-5 0z"/><path id="uso1f" d="M127 49.5a2.5 2.5 0 1 1 5 0 2.5 2.5 0 0 1-5 0z"/><path id="uso1g" d="M137 29.5a2.5 2.5 0 1 1 5 0 2.5 2.5 0 0 1-5 0z"/><path id="uso1h" d="M137 39.5a2.5 2.5 0 1 1 5 0 2.5 2.5 0 0 1-5 0z"/><path id="uso1i" d="M137 49.5a2.5 2.5 0 1 1 5 0 2.5 2.5 0 0 1-5 0z"/></defs><g><g transform="translate(-117 -27)"><g><use fill="#06bab5" xlink:href="#uso1a"/></g><g><use fill="#06bab5" xlink:href="#uso1b"/></g><g><use fill="#06bab5" xlink:href="#uso1c"/></g><g><use fill="#06bab5" xlink:href="#uso1d"/></g><g><use fill="#06bab5" xlink:href="#uso1e"/></g><g><use fill="#06bab5" xlink:href="#uso1f"/></g><g><use fill="#06bab5" xlink:href="#uso1g"/></g><g><use fill="#06bab5" xlink:href="#uso1h"/></g><g><use fill="#06bab5" xlink:href="#uso1i"/></g></g></g></svg>