<svg xmlns="http://www.w3.org/2000/svg" xmlns:xlink="http://www.w3.org/1999/xlink" width="20" height="18"><defs><path id="a" d="M292.79 115.48a.58.58 0 0 1 0 .82l-2.9 2.9a.58.58 0 0 1-.82-.82l1.85-1.85-5 .11h-.05a2.52 2.52 0 0 1-1.8-.76l-4.07-4.21h-6.42a.58.58 0 1 1 0-1.16H280l4.12-4.21a2.53 2.53 0 0 1 1.8-.76H291l-1.89-1.92a.58.58 0 1 1 .82-.82l2.9 2.9a.58.58 0 0 1 0 .82l-2.9 2.9a.58.58 0 0 1-.82-.82l1.89-1.91h-5.1a1.36 1.36 0 0 0-1 .41l-3.87 4 3.85 4a1.3 1.3 0 0 0 1 .41l5.12-.15-2-2a.58.58 0 1 1 .82-.82z"/></defs><use fill="#fff" xlink:href="#a" transform="translate(-273 -102)"/></svg>