<svg xmlns="http://www.w3.org/2000/svg" xmlns:xlink="http://www.w3.org/1999/xlink" width="21" height="18"><defs><path id="a" d="M87.6 117.039a1.88 1.88 0 0 1-1.878 1.878H71.678a1.88 1.88 0 0 1-1.878-1.878v-12.082a1.88 1.88 0 0 1 1.878-1.878h2.556c.51 0 1.004.212 1.357.58l1.428 1.492a3.09 3.09 0 0 0 2.224.949h6.479a1.88 1.88 0 0 1 1.878 1.879zm-1.878-12.138h-6.479a1.89 1.89 0 0 1-1.357-.58l-1.428-1.492a3.094 3.094 0 0 0-2.224-.949h-2.556a3.08 3.08 0 0 0-3.078 3.077v12.082a3.08 3.08 0 0 0 3.078 3.077h14.044a3.08 3.08 0 0 0 3.078-3.077v-9.06a3.082 3.082 0 0 0-3.078-3.078z"/></defs><use fill="#fff" xlink:href="#a" transform="translate(-68 -102)"/></svg>