<svg xmlns="http://www.w3.org/2000/svg" xmlns:xlink="http://www.w3.org/1999/xlink" width="21" height="17"><defs><path id="a" d="M1038.26 117.9a.6.6 0 0 1-.6.6h-16a.6.6 0 0 1 0-1.2h16a.6.6 0 0 1 .6.6zm-17.2-4.667a.6.6 0 0 1 .6-.6h9.211a.6.6 0 0 1 0 1.2h-9.211a.6.6 0 0 1-.6-.6zm.6-4.066a.6.6 0 0 1 0-1.2h8a.6.6 0 0 1 0 1.2zm-.6-5.267a.6.6 0 0 1 .6-.6h8.211a.6.6 0 0 1 0 1.2h-8.211a.6.6 0 0 1-.6-.6z"/><path id="b" d="M1017.592 111.539h6.127a1.64 1.64 0 0 0 1.391-2.513l-2.744-4.366-.619 2.939a.6.6 0 0 1-1.174-.248l.923-4.383a.588.588 0 0 1 .486-.463.593.593 0 0 1 .153 0 .588.588 0 0 1 .07 0h.018l4.361.919a.603.603 0 0 1-.244 1.181l-2.992-.63 2.775 4.412a2.839 2.839 0 0 1-2.4 4.351h-6.123a.6.6 0 0 1 0-1.2z"/></defs><use fill="#fff" xlink:href="#a" transform="translate(-1017 -102)"/><use fill="#fff" xlink:href="#b" transform="rotate(90 565 -452)"/></svg>