<svg xmlns="http://www.w3.org/2000/svg" xmlns:xlink="http://www.w3.org/1999/xlink" width="21" height="20"><defs><path id="a" d="M135.601 118.136a1.5 1.5 0 0 1-1.5 1.5h-.774v-4.36a1.65 1.65 0 0 0-1.647-1.649h-9.96a1.65 1.65 0 0 0-1.648 1.648v4.36h-.772a1.5 1.5 0 0 1-1.5-1.5v-14.279a1.5 1.5 0 0 1 1.5-1.5h1.12v2.63c0 .91.735 1.648 1.645 1.651h5.335a1.65 1.65 0 0 0 1.648-1.648v-2.631h.071c.397.002.779.157 1.065.433l4.975 4.975c.281.28.44.662.438 1.06zm-3.471 1.5h-10.86v-4.36a.451.451 0 0 1 .449-.449h9.961a.451.451 0 0 1 .449.449zm-10.514-17.278h6.225v2.63a.45.45 0 0 1-.448.449h-5.329a.45.45 0 0 1-.448-.449zm14.394 4.56l-4.98-4.98a2.722 2.722 0 0 0-1.907-.778H119.3a2.7 2.7 0 0 0-2.7 2.7v14.278a2.7 2.7 0 0 0 2.7 2.7h14.8a2.7 2.7 0 0 0 2.7-2.7v-9.313a2.677 2.677 0 0 0-.79-1.907z"/></defs><use fill="#fff" xlink:href="#a" transform="translate(-116 -101)"/></svg>